<svg viewBox="0 0 800 600" xmlns="http://www.w3.org/2000/svg" role="img">
  <title>Portfolio website browser mockup</title>
  <defs>
    <linearGradient id="bg1" x1="0" y1="0" x2="1" y2="1">
      <stop offset="0%" stop-color="#12121A"/>
      <stop offset="100%" stop-color="#0A0A0F"/>
    </linearGradient>
    <linearGradient id="glow1" x1="0" y1="0" x2="1" y2="1">
      <stop offset="0%" stop-color="#7C6AEF"/>
      <stop offset="100%" stop-color="#FFB454"/>
    </linearGradient>
    <radialGradient id="blob1" cx="50%" cy="50%" r="50%">
      <stop offset="0%" stop-color="#7C6AEF" stop-opacity="0.55"/>
      <stop offset="100%" stop-color="#7C6AEF" stop-opacity="0"/>
    </radialGradient>
    <radialGradient id="blob2" cx="50%" cy="50%" r="50%">
      <stop offset="0%" stop-color="#FFB454" stop-opacity="0.35"/>
      <stop offset="100%" stop-color="#FFB454" stop-opacity="0"/>
    </radialGradient>
    <filter id="blur1"><feGaussianBlur stdDeviation="40"/></filter>
  </defs>

  <rect width="800" height="600" fill="url(#bg1)"/>
  <circle cx="150" cy="120" r="180" fill="url(#blob1)" filter="url(#blur1)"/>
  <circle cx="680" cy="480" r="160" fill="url(#blob2)" filter="url(#blur1)"/>

  <rect x="90" y="110" width="620" height="380" rx="16" fill="#0F0F16" stroke="#2A2A38" stroke-width="1.5"/>

  <rect x="90" y="110" width="620" height="46" rx="16" fill="#15151E"/>
  <rect x="90" y="140" width="620" height="16" fill="#15151E"/>
  <circle cx="118" cy="133" r="6" fill="#7C6AEF"/>
  <circle cx="140" cy="133" r="6" fill="#FFB454"/>
  <circle cx="162" cy="133" r="6" fill="#4B4B5E"/>
  <rect x="330" y="123" width="220" height="20" rx="10" fill="#1E1E29"/>
  <text x="440" y="137" text-anchor="middle" font-family="monospace" font-size="11" fill="#7C7C90">yourname.dev</text>

  <circle cx="400" cy="260" r="42" fill="none" stroke="url(#glow1)" stroke-width="3"/>
  <circle cx="400" cy="260" r="30" fill="#1E1E29"/>

  <rect x="320" y="330" width="160" height="14" rx="7" fill="#E8E6F0"/>
  <rect x="350" y="352" width="100" height="10" rx="5" fill="#FFB454"/>
  <rect x="300" y="376" width="200" height="8" rx="4" fill="#4B4B5E"/>
  <rect x="330" y="392" width="140" height="8" rx="4" fill="#3A3A48"/>

  <rect x="345" y="415" width="110" height="34" rx="17" fill="url(#glow1)"/>
  <text x="400" y="437" text-anchor="middle" font-family="sans-serif" font-size="12" font-weight="600" fill="#0A0A0F">View work</text>

  <rect x="140" y="230" width="8" height="60" rx="4" fill="#2A2A38"/>
  <rect x="652" y="230" width="8" height="60" rx="4" fill="#2A2A38"/>
</svg>
