<svg viewBox="0 0 800 600" xmlns="http://www.w3.org/2000/svg" role="img">
  <title>Kanban task board mockup</title>
  <defs>
    <linearGradient id="bg2" x1="0" y1="0" x2="1" y2="1">
      <stop offset="0%" stop-color="#12121A"/>
      <stop offset="100%" stop-color="#0A0A0F"/>
    </linearGradient>
    <radialGradient id="blob3" cx="50%" cy="50%" r="50%">
      <stop offset="0%" stop-color="#FFB454" stop-opacity="0.45"/>
      <stop offset="100%" stop-color="#FFB454" stop-opacity="0"/>
    </radialGradient>
    <radialGradient id="blob4" cx="50%" cy="50%" r="50%">
      <stop offset="0%" stop-color="#7C6AEF" stop-opacity="0.4"/>
      <stop offset="100%" stop-color="#7C6AEF" stop-opacity="0"/>
    </radialGradient>
    <filter id="blur2"><feGaussianBlur stdDeviation="40"/></filter>
  </defs>

  <rect width="800" height="600" fill="url(#bg2)"/>
  <circle cx="680" cy="100" r="160" fill="url(#blob3)" filter="url(#blur2)"/>
  <circle cx="100" cy="520" r="160" fill="url(#blob4)" filter="url(#blur2)"/>

  <rect x="80" y="90" width="190" height="30" rx="8" fill="#1E1E29"/>
  <text x="175" y="110" text-anchor="middle" font-family="sans-serif" font-size="13" font-weight="600" fill="#9294AC">To do</text>

  <rect x="300" y="90" width="190" height="30" rx="8" fill="#1E1E29"/>
  <text x="395" y="110" text-anchor="middle" font-family="sans-serif" font-size="13" font-weight="600" fill="#B7ACFF">In progress</text>

  <rect x="520" y="90" width="190" height="30" rx="8" fill="#1E1E29"/>
  <text x="615" y="110" text-anchor="middle" font-family="sans-serif" font-size="13" font-weight="600" fill="#FFD8A6">Done</text>

  <g>
    <rect x="80" y="140" width="190" height="80" rx="10" fill="#0F0F16" stroke="#2A2A38" stroke-width="1.5"/>
    <rect x="96" y="156" width="6" height="48" rx="3" fill="#7C6AEF"/>
    <rect x="114" y="160" width="130" height="10" rx="5" fill="#E8E6F0"/>
    <rect x="114" y="178" width="90" height="8" rx="4" fill="#4B4B5E"/>
    <circle cx="238" cy="198" r="7" fill="#2A2A38"/>
  </g>

  <g>
    <rect x="80" y="234" width="190" height="80" rx="10" fill="#0F0F16" stroke="#2A2A38" stroke-width="1.5"/>
    <rect x="96" y="250" width="6" height="48" rx="3" fill="#FFB454"/>
    <rect x="114" y="254" width="140" height="10" rx="5" fill="#E8E6F0"/>
    <rect x="114" y="272" width="80" height="8" rx="4" fill="#4B4B5E"/>
    <circle cx="238" cy="292" r="7" fill="#2A2A38"/>
  </g>

  <g>
    <rect x="300" y="140" width="190" height="94" rx="10" fill="#0F0F16" stroke="#7C6AEF" stroke-width="1.5"/>
    <rect x="316" y="156" width="6" height="62" rx="3" fill="#7C6AEF"/>
    <rect x="334" y="160" width="120" height="10" rx="5" fill="#E8E6F0"/>
    <rect x="334" y="178" width="140" height="8" rx="4" fill="#4B4B5E"/>
    <rect x="334" y="192" width="60" height="18" rx="9" fill="#7C6AEF" opacity="0.2"/>
    <text x="364" y="205" text-anchor="middle" font-family="sans-serif" font-size="10" fill="#B7ACFF">urgent</text>
  </g>

  <g>
    <rect x="300" y="248" width="190" height="80" rx="10" fill="#0F0F16" stroke="#2A2A38" stroke-width="1.5"/>
    <rect x="316" y="264" width="6" height="48" rx="3" fill="#7C6AEF"/>
    <rect x="334" y="268" width="100" height="10" rx="5" fill="#E8E6F0"/>
    <rect x="334" y="286" width="130" height="8" rx="4" fill="#4B4B5E"/>
    <circle cx="458" cy="306" r="7" fill="#2A2A38"/>
  </g>

  <g>
    <rect x="520" y="140" width="190" height="80" rx="10" fill="#0F0F16" stroke="#2A2A38" stroke-width="1.5"/>
    <rect x="536" y="156" width="6" height="48" rx="3" fill="#4ADE80"/>
    <rect x="554" y="160" width="120" height="10" rx="5" fill="#8B8FA3"/>
    <rect x="554" y="178" width="90" height="8" rx="4" fill="#3A3A48"/>
    <path d="M660 194l6 6 12-14" fill="none" stroke="#4ADE80" stroke-width="2.5" stroke-linecap="round" stroke-linejoin="round"/>
  </g>

  <g>
    <rect x="520" y="234" width="190" height="80" rx="10" fill="#0F0F16" stroke="#2A2A38" stroke-width="1.5"/>
    <rect x="536" y="250" width="6" height="48" rx="3" fill="#4ADE80"/>
    <rect x="554" y="254" width="130" height="10" rx="5" fill="#8B8FA3"/>
    <rect x="554" y="272" width="70" height="8" rx="4" fill="#3A3A48"/>
    <path d="M660 288l6 6 12-14" fill="none" stroke="#4ADE80" stroke-width="2.5" stroke-linecap="round" stroke-linejoin="round"/>
  </g>
</svg>
